<svg xmlns="http://www.w3.org/2000/svg" width="300" height="300" viewBox="0 0 300 300">
<polygon fill="#ddd" points="0,0 60,0 30,30"/>
<polygon fill="#ccc" points="60,0 120,0 90,30"/>
<polygon fill="#ddd" points="120,0 180,0 150,30"/>
<polygon fill="#ccc" points="180,0 240,0 210,30"/>
<polygon fill="#ccc" points="0,60 60,60 30,90"/>
<polygon fill="#ddd" points="60,60 120,60 90,90"/>
<polygon fill="#ccc" points="120,60 180,60 150,90"/>
<polygon fill="#ddd" points="180,60 240,60 210,90"/>
<polygon fill="#ddd" points="0,120 60,120 30,150"/>
<polygon fill="#ccc" points="60,120 120,120 90,150"/>
<polygon fill="#ddd" points="120,120 180,120 150,150"/>
<polygon fill="#ccc" points="180,120 240,120 210,150"/>
<polygon fill="#ccc" points="0,180 60,180 30,210"/>
<polygon fill="#ddd" points="60,180 120,180 90,210"/>
<polygon fill="#ccc" points="120,180 180,180 150,210"/>
<polygon fill="#ddd" points="180,180 240,180 210,210"/>
</svg>