<svg xmlns="http://www.w3.org/2000/svg" version="1.1" xmlns:xlink="http://www.w3.org/1999/xlink" xmlns:svgjs="http://svgjs.dev/svgjs" width="2000" height="1000" preserveAspectRatio="none" viewBox="0 0 2000 1000">
    <g mask="url(&quot;#SvgjsMask1055&quot;)" fill="none">
        <rect width="2000" height="1000" x="0" y="0" fill="url(&quot;#SvgjsLinearGradient1056&quot;)"></rect>
        <path d="M1046.27 723.25a50.34 50.34 0 1 0 23.93-97.8z" fill="rgba(255, 0, 102, 1)"></path>
        <path d="M739.45 563.2 a38.39 38.39 0 1 0 76.78 0 a38.39 38.39 0 1 0 -76.78 0z" stroke="rgba(0, 153, 255, 1)"></path>
        <path d="M149.56 396.75L150.15 396.75L150.15 397.34L149.56 397.34z" stroke="rgba(255, 0, 102, 1)"></path>
        <path d="M39.59 320.6L48.57 320.6L48.57 329.58L39.59 329.58z" stroke="rgba(0, 255, 0, 1)"></path>
        <path d="M1942.04 491.92a46.55 46.55 0 1 0-92.3-12.21z" fill="rgba(255, 0, 102, 1)"></path>
        <path d="M272.69 738.34 a73.19 73.19 0 1 0 146.38 0 a73.19 73.19 0 1 0 -146.38 0z" fill="rgba(255, 255, 0, 1)"></path>
        <path d="M1700.07 270.17L1768.66 270.17L1768.66 338.76L1700.07 338.76z" fill="rgba(255, 255, 0, 1)"></path>
        <path d="M1833.39 956.64a32.8 32.8 0 1 0 65.48-4.04z" fill="rgba(255, 255, 0, 1)"></path>
        <path d="M1312.87 105.22L1372.01 105.22L1372.01 164.36L1312.87 164.36z" stroke="rgba(0, 255, 0, 1)"></path>
        <path d="M187.78 876.93a4.35 4.35 0 1 0-4.72 7.31z" fill="rgba(255, 0, 102, 1)"></path>
        <path d="M1016.5 318.9a38.23 38.23 0 1 0 9.36-75.88z" stroke="rgba(255, 255, 0, 1)"></path>
        <path d="M893.59 54.52a41.76 41.76 0 1 0 58 60.11z" fill="rgba(255, 255, 0, 1)"></path>
        <path d="M1070.57 464.38a85.23 85.23 0 1 0 138.89-98.82z" fill="rgba(0, 153, 255, 1)"></path>
        <path d="M39.3 565.08L137.67 565.08L137.67 626.13L39.3 626.13z" stroke="rgba(0, 153, 255, 1)"></path>
        <path d="M885.1 905.36L915.91 905.36L915.91 999.02L885.1 999.02z" stroke="rgba(0, 255, 0, 1)"></path>
        <path d="M179.13 295.1a55.8 55.8 0 1 0-104.98-37.86z" stroke="rgba(255, 255, 0, 1)"></path>
        <path d="M1078.25 557.21 a53.83 53.83 0 1 0 107.66 0 a53.83 53.83 0 1 0 -107.66 0z" stroke="rgba(255, 0, 102, 1)"></path>
        <path d="M767.58 410.04a25.49 25.49 0 1 0-29.46 41.6z" fill="rgba(255, 255, 0, 1)"></path>
        <path d="M616.48 1003.51a9.89 9.89 0 1 0-7.98-18.1z" fill="rgba(0, 255, 0, 1)"></path>
        <path d="M66.84 183.33 a47.63 47.63 0 1 0 95.26 0 a47.63 47.63 0 1 0 -95.26 0z" stroke="rgba(255, 255, 0, 1)"></path>
        <path d="M1495.12 650.22a11.79 11.79 0 1 0-20.56 11.54z" fill="rgba(255, 0, 102, 1)"></path>
        <path d="M55.98 124.34 a75.54 75.54 0 1 0 151.08 0 a75.54 75.54 0 1 0 -151.08 0z" stroke="rgba(255, 255, 0, 1)"></path>
        <path d="M865.38 236.72L938.45 236.72L938.45 243.62L865.38 243.62z" fill="rgba(0, 255, 0, 1)"></path>
        <path d="M597.08 126.2L679.14 126.2L679.14 203.87L597.08 203.87z" stroke="rgba(0, 255, 0, 1)"></path>
        <path d="M727.12 601.91L740.43 601.91L740.43 661.04L727.12 661.04z" stroke="rgba(255, 0, 102, 1)"></path>
    </g>
    <defs>
        <mask id="SvgjsMask1055">
            <rect width="2000" height="1000" fill="#ffffff"></rect>
        </mask>
        <linearGradient x1="12.5%" y1="-25%" x2="87.5%" y2="125%" gradientUnits="userSpaceOnUse" id="SvgjsLinearGradient1056">
            <stop stop-color="#0e2a47" offset="0"></stop>
            <stop stop-color="rgba(0, 0, 0, 1)" offset="1"></stop>
        </linearGradient>
    </defs>
</svg>